<?xml version="1.0" encoding="UTF-8"?>
<svg width="700pt" height="700pt" version="1.1" viewBox="0 0 700 700" xmlns="http://www.w3.org/2000/svg">
 <path d="m493.74 65.125h-99.734c0.49219-1.9961 0.80859-4.0508 0.80859-6.1836l0.003906-6.1797c0-13.648-11.082-24.73-24.73-24.73h-40.199c-13.668 0-24.73 11.082-24.73 24.73v6.1641c0 2.1328 0.29688 4.207 0.80859 6.1836l-99.73-0.003906c-13.648 0-24.73 11.082-24.73 24.73v417.36c0 13.668 11.082 24.75 24.73 24.75h287.51c13.648 0 24.73-11.082 24.73-24.75l-0.003906-417.34c0-13.648-11.059-24.73-24.73-24.73zm-21.984 420.09h-243.52v-373.33h243.52zm-222.3-42.074c0-10.605 8.3945-19.258 18.707-19.258h172.15c10.293 0 18.707 8.6523 18.707 19.258s-8.4141 19.238-18.707 19.238h-172.15c-10.312-0.019531-18.707-8.6289-18.707-19.238zm0-57.68c0-10.605 8.3945-19.258 18.707-19.258h172.15c10.293 0 18.707 8.6523 18.707 19.258 0 10.605-8.4141 19.238-18.707 19.238h-172.15c-10.312 0.003906-18.707-8.6289-18.707-19.238zm18.707-38.438h172.15c10.293 0 18.707-8.6328 18.707-19.238 0-10.605-8.4141-19.258-18.707-19.258h-172.15c-10.312 0-18.707 8.6523-18.707 19.258 0 10.605 8.3945 19.238 18.707 19.238zm0-26.805h172.15c3.8516 0 7.0117 3.3984 7.0117 7.5664 0 4.168-3.1602 7.5469-7.0117 7.5469h-172.15c-3.8711 0-7.0117-3.3789-7.0117-7.5469 0-4.1719 3.1406-7.5664 7.0117-7.5664zm0-30.875h172.15c10.293 0 18.707-8.6328 18.707-19.238-0.003906-10.609-8.3984-19.242-18.707-19.242h-172.15c-10.312 0-18.707 8.6328-18.707 19.238 0 10.609 8.3945 19.242 18.707 19.242zm0-26.805h172.15c3.8516 0 7.0117 3.3984 7.0117 7.5664s-3.1602 7.5664-7.0117 7.5664h-172.15c-3.8711 0-7.0117-3.3984-7.0117-7.5664s3.1406-7.5664 7.0117-7.5664zm0-30.875h172.15c10.293 0 18.707-8.6328 18.707-19.238s-8.4141-19.238-18.707-19.238h-172.15c-10.312 0-18.707 8.6328-18.707 19.238s8.3945 19.238 18.707 19.238zm0-26.805h172.15c3.8516 0 7.0117 3.3984 7.0117 7.5664s-3.1602 7.5664-7.0117 7.5664h-172.15c-3.8711 0-7.0117-3.3984-7.0117-7.5664s3.1406-7.5664 7.0117-7.5664zm0-30.855h172.15c10.293 0 18.707-8.6523 18.707-19.258 0-10.605-8.4141-19.238-18.707-19.238h-172.15c-10.312 0-18.707 8.6328-18.707 19.238 0 10.605 8.3945 19.258 18.707 19.258zm0-26.824h172.15c3.8516 0 7.0117 3.3984 7.0117 7.5664 0 4.168-3.1602 7.5664-7.0117 7.5664h-172.15c-3.8711 0-7.0117-3.3984-7.0117-7.5664 0-4.168 3.1406-7.5664 7.0117-7.5664z"/>
</svg>
