<?xml version="1.0" encoding="UTF-8"?>
<svg width="700pt" height="700pt" version="1.1" viewBox="0 0 700 700" xmlns="http://www.w3.org/2000/svg">
 <g>
  <path d="m414.54 327.55-86.012 88.27-42.488-52.938c-3.0273-3.7617-8.5039-4.375-12.301-1.3477-3.7617 3.0273-4.375 8.5234-1.3477 12.285l48.684 60.672c1.5742 1.9609 3.9023 3.1484 6.4062 3.2734 0.14062 0.015625 0.28125 0.015625 0.42188 0.015625 2.3633 0 4.6211-0.96094 6.2656-2.6406l92.926-95.359c3.3594-3.4492 3.2891-8.9961-0.17578-12.371-3.4336-3.3945-8.9844-3.3242-12.379 0.14062z"/>
  <path d="m538.75 64.262c-4.0781-12.27-15.52-20.512-28.473-20.512h-320.58c-12.934 0-24.359 8.2422-28.453 20.512l-47.039 140.86c-0.30078 0.87109-0.45703 1.8164-0.45703 2.7617 0 19.496 8.2773 37.258 21.141 49.945v228.41c0 16.539 13.457 30.012 30.012 30.012h370.2c16.539 0 30.012-13.477 30.012-30.012v-228.41c12.863-12.688 21.141-30.449 21.141-49.945 0-0.94531-0.15625-1.8711-0.4375-2.7656zm8.8555 421.98c0 6.9141-5.6016 12.512-12.512 12.512h-370.2c-6.8945 0-12.512-5.6016-12.512-12.512v-215.77c7.2461 3.5156 15.156 5.7227 23.469 6.1602 1.1914 0.070312 2.3633 0.10547 3.5508 0.10547 16.906 0 32.812-6.3359 45.148-18.023 4.8125-4.5664 8.5391-9.8867 11.707-15.469 11.289 19.879 32.41 33.496 56.859 33.496 24.465 0 45.586-13.613 56.875-33.512 11.289 19.898 32.41 33.512 56.875 33.512 24.449 0 45.57-13.598 56.859-33.496 3.168 5.6016 6.8945 10.902 11.727 15.469 13.176 12.496 30.363 18.918 48.684 17.922 8.3125-0.4375 16.223-2.6406 23.469-6.1602zm-24.395-227.06c-13.578 0.38672-26.059-4.0078-35.719-13.16-9.6602-9.1875-14.996-21.594-14.996-34.914 0-4.8281-3.9219-8.75-8.75-8.75s-8.75 3.9219-8.75 8.75c0 26.547-21.578 48.125-48.125 48.125s-48.125-21.578-48.125-48.125c0-4.8281-3.9219-8.75-8.75-8.75s-8.75 3.9219-8.75 8.75c0 26.547-21.578 48.125-48.125 48.125s-48.125-21.594-48.125-48.125c0-4.8281-3.9219-8.75-8.75-8.75s-8.75 3.9023-8.75 8.75c0 13.336-5.3203 25.742-14.996 34.914-9.6758 9.1719-22.418 13.578-35.734 13.16-24.676-1.3125-44.836-23.574-45.516-49.926l46.586-139.46c1.7109-5.1133 6.4883-8.543 11.859-8.543h320.58c5.4062 0 10.168 3.4297 11.863 8.5391l46.586 139.46c-0.67969 26.355-20.824 48.598-45.516 49.93z"/>
 </g>
</svg>
