<?xml version="1.0" encoding="UTF-8"?>
<svg width="700pt" height="700pt" version="1.1" viewBox="0 0 700 700" xmlns="http://www.w3.org/2000/svg">
 <path d="m430.8 246.98c0 8.7305 3.5859 16.699 9.3672 22.477 5.7617 5.7617 13.73 9.3516 22.477 9.3516 8.7656 0 16.746-3.5898 22.5-9.3398 5.7617-5.7891 9.3398-13.758 9.3398-22.488v-46.715l-20.215-146.08h-49.535c2.6992 64.887 6.0273 128.02 6.0664 192.8zm-265.86 197.12 6.3945 44.52h48.137v-190.34c10.98-1.7773 20.848-7.043 28.422-14.625 1.8789-1.8711 3.6055-3.875 5.1797-6.0195 1.582 2.1562 3.3203 4.1719 5.1992 6.0664l0.62109 0.57031c9.3711 9.0742 22.117 14.691 36.105 14.691 14.293 0 27.309-5.8555 36.715-15.258 1.8789-1.8906 3.6172-3.9023 5.1914-6.0508 1.5742 2.1484 3.3086 4.1602 5.1797 6.0508 9.4258 9.4062 22.434 15.258 36.723 15.258 14.301 0 27.316-5.8555 36.734-15.258 1.8789-1.8906 3.6055-3.9023 5.1875-6.0508 1.5664 2.1484 3.3086 4.1602 5.1875 6.0508 9.4102 9.4062 22.422 15.258 36.723 15.258 14.281 0 27.27-5.8672 36.73-15.258 1.8789-1.8906 3.6055-3.9023 5.1875-6.0508 1.5742 2.1484 3.3086 4.1602 5.1875 6.0508 7.5586 7.5469 17.414 12.797 28.414 14.578v190.34h55.254c4.7422 0 8.5938 3.8477 8.5938 8.5938 0 4.7422-3.8477 8.5938-8.5938 8.5938h-473.21c-4.7422 0-8.5938-3.8477-8.5938-8.5938 0-4.7422 3.8477-8.5938 8.5938-8.5938h33.82l-6.0469-42.078-33.824 4.8633c-4.6914 0.66016-9.043-2.5938-9.7031-7.2812l-6.3555-44.25c-0.66016-4.6836 2.5938-9.0352 7.2773-9.6953l84.598-12.156c4.6914-0.66016 9.0352 2.5938 9.6953 7.2773l6.3633 44.25c0.66016 4.6914-2.5938 9.0352-7.2812 9.7031l-33.793 4.8555zm78.562 44.52h20.148v-140.17h61.91v140.17h20.152v-150.25c0-5.5547-4.5156-10.059-10.074-10.059h-82.062c-5.5547 0-10.074 4.5039-10.074 10.059zm135.41-160.31c-5.5547 0-10.066 4.5039-10.066 10.059v96.223c0 5.5625 4.5117 10.074 10.066 10.074h125.15c5.5547 0 10.074-4.5117 10.074-10.074v-96.223c0-5.5547-4.5156-10.059-10.074-10.059zm115.08 20.141v76.07h-105.02v-76.07zm20.637-148.71v47.238c0 8.7305 3.5859 16.699 9.3672 22.477 5.7695 5.7617 13.73 9.3516 22.477 9.3516 8.7383 0 16.695-3.5898 22.477-9.3516 5.7734-5.7734 9.3594-13.746 9.3594-22.477v-46.102l-36.57-146.7h-47.172l20.066 145.56zm-103.96 0-6.0312-145.56h-51.645c-2.6836 64.934-6.0039 127.99-6.0039 192.8 0 8.7305 3.5859 16.699 9.3477 22.477 5.7812 5.7617 13.738 9.3516 22.477 9.3516 8.75 0 16.707-3.5898 22.48-9.3516 5.7695-5.7734 9.3516-13.746 9.3516-22.477l0.027343-47.238zm-77.77-145.56h-49.535l-20.215 146.08v46.715c0 8.7305 3.5859 16.699 9.5898 22.715 5.9336 5.7227 13.691 9.1133 22.258 9.1133 8.7383 0 16.699-3.5898 22.469-9.3516 5.7734-5.7734 9.3672-13.746 9.3672-22.477 0-64.781 3.375-127.91 6.0664-192.8zm-69.828 0h-47.16l-36.582 146.7v46.102c0 8.7305 3.5859 16.699 9.3594 22.477 5.7812 5.7617 13.73 9.3516 22.48 9.3516 8.7695 0 16.742-3.5898 22.5-9.3398 5.7539-5.7617 9.3398-13.746 9.3398-22.488v-47.238z"/>
</svg>
